<svg width="128" height="133" viewBox="0 0 128 133" fill="none" xmlns="http://www.w3.org/2000/svg">
<path d="M0.20575 8.822V7.464H2.50175V5.14H3.90175V7.464H6.19775V8.822H3.90175V11.23H2.50175V8.822H0.20575Z" fill="#9C4DF4"/>
<path d="M13.717 8.822V7.464H16.013V5.14H17.413V7.464H19.709V8.822H17.413V11.23H16.013V8.822H13.717Z" fill="#9C4DF4"/>
<path d="M27.2282 8.822V7.464H29.5242V5.14H30.9242V7.464H33.2202V8.822H30.9242V11.23H29.5242V8.822H27.2282Z" fill="#9C4DF4"/>
<path d="M40.739 8.822V7.464H43.035V5.14H44.435V7.464H46.731V8.822H44.435V11.23H43.035V8.822H40.739Z" fill="#9C4DF4"/>
<path d="M54.2502 8.822V7.464H56.5462V5.14H57.9462V7.464H60.2422V8.822H57.9462V11.23H56.5462V8.822H54.2502Z" fill="#9C4DF4"/>
<path d="M67.7614 8.822V7.464H70.0574V5.14H71.4574V7.464H73.7534V8.822H71.4574V11.23H70.0574V8.822H67.7614Z" fill="#9C4DF4"/>
<path d="M81.2726 8.822V7.464H83.5686V5.14H84.9686V7.464H87.2646V8.822H84.9686V11.23H83.5686V8.822H81.2726Z" fill="#9C4DF4"/>
<path d="M94.7834 8.822V7.464H97.0794V5.14H98.4794V7.464H100.775V8.822H98.4794V11.23H97.0794V8.822H94.7834Z" fill="#9C4DF4"/>
<path d="M108.295 8.822V7.464H110.591V5.14H111.991V7.464H114.287V8.822H111.991V11.23H110.591V8.822H108.295Z" fill="#9C4DF4"/>
<path d="M121.806 8.822V7.464H124.102V5.14H125.502V7.464H127.798V8.822H125.502V11.23H124.102V8.822H121.806Z" fill="#9C4DF4"/>
<path d="M0.20575 22.3332V20.9752H2.50175V18.6512H3.90175V20.9752H6.19775V22.3332H3.90175V24.7412H2.50175V22.3332H0.20575Z" fill="#9C4DF4"/>
<path d="M13.717 22.3332V20.9752H16.013V18.6512H17.413V20.9752H19.709V22.3332H17.413V24.7412H16.013V22.3332H13.717Z" fill="#9C4DF4"/>
<path d="M27.2282 22.3332V20.9752H29.5242V18.6512H30.9242V20.9752H33.2202V22.3332H30.9242V24.7412H29.5242V22.3332H27.2282Z" fill="#9C4DF4"/>
<path d="M40.739 22.3332V20.9752H43.035V18.6512H44.435V20.9752H46.731V22.3332H44.435V24.7412H43.035V22.3332H40.739Z" fill="#9C4DF4"/>
<path d="M54.2502 22.3332V20.9752H56.5462V18.6512H57.9462V20.9752H60.2422V22.3332H57.9462V24.7412H56.5462V22.3332H54.2502Z" fill="#9C4DF4"/>
<path d="M67.7614 22.3332V20.9752H70.0574V18.6512H71.4574V20.9752H73.7534V22.3332H71.4574V24.7412H70.0574V22.3332H67.7614Z" fill="#9C4DF4"/>
<path d="M81.2726 22.3332V20.9752H83.5686V18.6512H84.9686V20.9752H87.2646V22.3332H84.9686V24.7412H83.5686V22.3332H81.2726Z" fill="#9C4DF4"/>
<path d="M94.7834 22.3332V20.9752H97.0794V18.6512H98.4794V20.9752H100.775V22.3332H98.4794V24.7412H97.0794V22.3332H94.7834Z" fill="#9C4DF4"/>
<path d="M108.295 22.3332V20.9752H110.591V18.6512H111.991V20.9752H114.287V22.3332H111.991V24.7412H110.591V22.3332H108.295Z" fill="#9C4DF4"/>
<path d="M121.806 22.3332V20.9752H124.102V18.6512H125.502V20.9752H127.798V22.3332H125.502V24.7412H124.102V22.3332H121.806Z" fill="#9C4DF4"/>
<path d="M0.20575 35.8442V34.4862H2.50175V32.1622H3.90175V34.4862H6.19775V35.8442H3.90175V38.2522H2.50175V35.8442H0.20575Z" fill="#9C4DF4"/>
<path d="M13.717 35.8442V34.4862H16.013V32.1622H17.413V34.4862H19.709V35.8442H17.413V38.2522H16.013V35.8442H13.717Z" fill="#9C4DF4"/>
<path d="M27.2282 35.8442V34.4862H29.5242V32.1622H30.9242V34.4862H33.2202V35.8442H30.9242V38.2522H29.5242V35.8442H27.2282Z" fill="#9C4DF4"/>
<path d="M40.739 35.8442V34.4862H43.035V32.1622H44.435V34.4862H46.731V35.8442H44.435V38.2522H43.035V35.8442H40.739Z" fill="#9C4DF4"/>
<path d="M54.2502 35.8442V34.4862H56.5462V32.1622H57.9462V34.4862H60.2422V35.8442H57.9462V38.2522H56.5462V35.8442H54.2502Z" fill="#9C4DF4"/>
<path d="M67.7614 35.8442V34.4862H70.0574V32.1622H71.4574V34.4862H73.7534V35.8442H71.4574V38.2522H70.0574V35.8442H67.7614Z" fill="#9C4DF4"/>
<path d="M81.2726 35.8442V34.4862H83.5686V32.1622H84.9686V34.4862H87.2646V35.8442H84.9686V38.2522H83.5686V35.8442H81.2726Z" fill="#9C4DF4"/>
<path d="M94.7834 35.8442V34.4862H97.0794V32.1622H98.4794V34.4862H100.775V35.8442H98.4794V38.2522H97.0794V35.8442H94.7834Z" fill="#9C4DF4"/>
<path d="M108.295 35.8442V34.4862H110.591V32.1622H111.991V34.4862H114.287V35.8442H111.991V38.2522H110.591V35.8442H108.295Z" fill="#9C4DF4"/>
<path d="M121.806 35.8442V34.4862H124.102V32.1622H125.502V34.4862H127.798V35.8442H125.502V38.2522H124.102V35.8442H121.806Z" fill="#9C4DF4"/>
<path d="M0.20575 49.3554V47.9974H2.50175V45.6734H3.90175V47.9974H6.19775V49.3554H3.90175V51.7634H2.50175V49.3554H0.20575Z" fill="#9C4DF4"/>
<path d="M13.717 49.3554V47.9974H16.013V45.6734H17.413V47.9974H19.709V49.3554H17.413V51.7634H16.013V49.3554H13.717Z" fill="#9C4DF4"/>
<path d="M27.2282 49.3554V47.9974H29.5242V45.6734H30.9242V47.9974H33.2202V49.3554H30.9242V51.7634H29.5242V49.3554H27.2282Z" fill="#9C4DF4"/>
<path d="M40.739 49.3554V47.9974H43.035V45.6734H44.435V47.9974H46.731V49.3554H44.435V51.7634H43.035V49.3554H40.739Z" fill="#9C4DF4"/>
<path d="M54.2502 49.3554V47.9974H56.5462V45.6734H57.9462V47.9974H60.2422V49.3554H57.9462V51.7634H56.5462V49.3554H54.2502Z" fill="#9C4DF4"/>
<path d="M67.7614 49.3554V47.9974H70.0574V45.6734H71.4574V47.9974H73.7534V49.3554H71.4574V51.7634H70.0574V49.3554H67.7614Z" fill="#9C4DF4"/>
<path d="M81.2726 49.3554V47.9974H83.5686V45.6734H84.9686V47.9974H87.2646V49.3554H84.9686V51.7634H83.5686V49.3554H81.2726Z" fill="#9C4DF4"/>
<path d="M94.7834 49.3554V47.9974H97.0794V45.6734H98.4794V47.9974H100.775V49.3554H98.4794V51.7634H97.0794V49.3554H94.7834Z" fill="#9C4DF4"/>
<path d="M108.295 49.3554V47.9974H110.591V45.6734H111.991V47.9974H114.287V49.3554H111.991V51.7634H110.591V49.3554H108.295Z" fill="#9C4DF4"/>
<path d="M121.806 49.3554V47.9974H124.102V45.6734H125.502V47.9974H127.798V49.3554H125.502V51.7634H124.102V49.3554H121.806Z" fill="#9C4DF4"/>
<path d="M0.20575 62.8664V61.5084H2.50175V59.1844H3.90175V61.5084H6.19775V62.8664H3.90175V65.2744H2.50175V62.8664H0.20575Z" fill="#9C4DF4"/>
<path d="M13.717 62.8664V61.5084H16.013V59.1844H17.413V61.5084H19.709V62.8664H17.413V65.2744H16.013V62.8664H13.717Z" fill="#9C4DF4"/>
<path d="M27.2282 62.8664V61.5084H29.5242V59.1844H30.9242V61.5084H33.2202V62.8664H30.9242V65.2744H29.5242V62.8664H27.2282Z" fill="#9C4DF4"/>
<path d="M40.739 62.8664V61.5084H43.035V59.1844H44.435V61.5084H46.731V62.8664H44.435V65.2744H43.035V62.8664H40.739Z" fill="#9C4DF4"/>
<path d="M54.2502 62.8664V61.5084H56.5462V59.1844H57.9462V61.5084H60.2422V62.8664H57.9462V65.2744H56.5462V62.8664H54.2502Z" fill="#9C4DF4"/>
<path d="M67.7614 62.8664V61.5084H70.0574V59.1844H71.4574V61.5084H73.7534V62.8664H71.4574V65.2744H70.0574V62.8664H67.7614Z" fill="#9C4DF4"/>
<path d="M81.2726 62.8664V61.5084H83.5686V59.1844H84.9686V61.5084H87.2646V62.8664H84.9686V65.2744H83.5686V62.8664H81.2726Z" fill="#9C4DF4"/>
<path d="M94.7834 62.8664V61.5084H97.0794V59.1844H98.4794V61.5084H100.775V62.8664H98.4794V65.2744H97.0794V62.8664H94.7834Z" fill="#9C4DF4"/>
<path d="M108.295 62.8664V61.5084H110.591V59.1844H111.991V61.5084H114.287V62.8664H111.991V65.2744H110.591V62.8664H108.295Z" fill="#9C4DF4"/>
<path d="M121.806 62.8664V61.5084H124.102V59.1844H125.502V61.5084H127.798V62.8664H125.502V65.2744H124.102V62.8664H121.806Z" fill="#9C4DF4"/>
<path d="M0.20575 76.3777V75.0197H2.50175V72.6957H3.90175V75.0197H6.19775V76.3777H3.90175V78.7857H2.50175V76.3777H0.20575Z" fill="#9C4DF4"/>
<path d="M13.717 76.3777V75.0197H16.013V72.6957H17.413V75.0197H19.709V76.3777H17.413V78.7857H16.013V76.3777H13.717Z" fill="#9C4DF4"/>
<path d="M27.2282 76.3777V75.0197H29.5242V72.6957H30.9242V75.0197H33.2202V76.3777H30.9242V78.7857H29.5242V76.3777H27.2282Z" fill="#9C4DF4"/>
<path d="M40.739 76.3777V75.0197H43.035V72.6957H44.435V75.0197H46.731V76.3777H44.435V78.7857H43.035V76.3777H40.739Z" fill="#9C4DF4"/>
<path d="M54.2502 76.3777V75.0197H56.5462V72.6957H57.9462V75.0197H60.2422V76.3777H57.9462V78.7857H56.5462V76.3777H54.2502Z" fill="#9C4DF4"/>
<path d="M67.7614 76.3777V75.0197H70.0574V72.6957H71.4574V75.0197H73.7534V76.3777H71.4574V78.7857H70.0574V76.3777H67.7614Z" fill="#9C4DF4"/>
<path d="M81.2726 76.3777V75.0197H83.5686V72.6957H84.9686V75.0197H87.2646V76.3777H84.9686V78.7857H83.5686V76.3777H81.2726Z" fill="#9C4DF4"/>
<path d="M94.7834 76.3777V75.0197H97.0794V72.6957H98.4794V75.0197H100.775V76.3777H98.4794V78.7857H97.0794V76.3777H94.7834Z" fill="#9C4DF4"/>
<path d="M108.295 76.3777V75.0197H110.591V72.6957H111.991V75.0197H114.287V76.3777H111.991V78.7857H110.591V76.3777H108.295Z" fill="#9C4DF4"/>
<path d="M121.806 76.3777V75.0197H124.102V72.6957H125.502V75.0197H127.798V76.3777H125.502V78.7857H124.102V76.3777H121.806Z" fill="#9C4DF4"/>
<path d="M0.20575 89.8887V88.5307H2.50175V86.2067H3.90175V88.5307H6.19775V89.8887H3.90175V92.2967H2.50175V89.8887H0.20575Z" fill="#9C4DF4"/>
<path d="M13.717 89.8887V88.5307H16.013V86.2067H17.413V88.5307H19.709V89.8887H17.413V92.2967H16.013V89.8887H13.717Z" fill="#9C4DF4"/>
<path d="M27.2282 89.8887V88.5307H29.5242V86.2067H30.9242V88.5307H33.2202V89.8887H30.9242V92.2967H29.5242V89.8887H27.2282Z" fill="#9C4DF4"/>
<path d="M40.739 89.8887V88.5307H43.035V86.2067H44.435V88.5307H46.731V89.8887H44.435V92.2967H43.035V89.8887H40.739Z" fill="#9C4DF4"/>
<path d="M54.2502 89.8887V88.5307H56.5462V86.2067H57.9462V88.5307H60.2422V89.8887H57.9462V92.2967H56.5462V89.8887H54.2502Z" fill="#9C4DF4"/>
<path d="M67.7614 89.8887V88.5307H70.0574V86.2067H71.4574V88.5307H73.7534V89.8887H71.4574V92.2967H70.0574V89.8887H67.7614Z" fill="#9C4DF4"/>
<path d="M81.2726 89.8887V88.5307H83.5686V86.2067H84.9686V88.5307H87.2646V89.8887H84.9686V92.2967H83.5686V89.8887H81.2726Z" fill="#9C4DF4"/>
<path d="M94.7834 89.8887V88.5307H97.0794V86.2067H98.4794V88.5307H100.775V89.8887H98.4794V92.2967H97.0794V89.8887H94.7834Z" fill="#9C4DF4"/>
<path d="M108.295 89.8887V88.5307H110.591V86.2067H111.991V88.5307H114.287V89.8887H111.991V92.2967H110.591V89.8887H108.295Z" fill="#9C4DF4"/>
<path d="M121.806 89.8887V88.5307H124.102V86.2067H125.502V88.5307H127.798V89.8887H125.502V92.2967H124.102V89.8887H121.806Z" fill="#9C4DF4"/>
<path d="M0.20575 103.4V102.042H2.50175V99.7179H3.90175V102.042H6.19775V103.4H3.90175V105.808H2.50175V103.4H0.20575Z" fill="#9C4DF4"/>
<path d="M13.717 103.4V102.042H16.013V99.7179H17.413V102.042H19.709V103.4H17.413V105.808H16.013V103.4H13.717Z" fill="#9C4DF4"/>
<path d="M27.2282 103.4V102.042H29.5242V99.7179H30.9242V102.042H33.2202V103.4H30.9242V105.808H29.5242V103.4H27.2282Z" fill="#9C4DF4"/>
<path d="M40.739 103.4V102.042H43.035V99.7179H44.435V102.042H46.731V103.4H44.435V105.808H43.035V103.4H40.739Z" fill="#9C4DF4"/>
<path d="M54.2502 103.4V102.042H56.5462V99.7179H57.9462V102.042H60.2422V103.4H57.9462V105.808H56.5462V103.4H54.2502Z" fill="#9C4DF4"/>
<path d="M67.7614 103.4V102.042H70.0574V99.7179H71.4574V102.042H73.7534V103.4H71.4574V105.808H70.0574V103.4H67.7614Z" fill="#9C4DF4"/>
<path d="M81.2726 103.4V102.042H83.5686V99.7179H84.9686V102.042H87.2646V103.4H84.9686V105.808H83.5686V103.4H81.2726Z" fill="#9C4DF4"/>
<path d="M94.7834 103.4V102.042H97.0794V99.7179H98.4794V102.042H100.775V103.4H98.4794V105.808H97.0794V103.4H94.7834Z" fill="#9C4DF4"/>
<path d="M108.295 103.4V102.042H110.591V99.7179H111.991V102.042H114.287V103.4H111.991V105.808H110.591V103.4H108.295Z" fill="#9C4DF4"/>
<path d="M121.806 103.4V102.042H124.102V99.7179H125.502V102.042H127.798V103.4H125.502V105.808H124.102V103.4H121.806Z" fill="#9C4DF4"/>
<path d="M0.20575 116.911V115.553H2.50175V113.229H3.90175V115.553H6.19775V116.911H3.90175V119.319H2.50175V116.911H0.20575Z" fill="#9C4DF4"/>
<path d="M13.717 116.911V115.553H16.013V113.229H17.413V115.553H19.709V116.911H17.413V119.319H16.013V116.911H13.717Z" fill="#9C4DF4"/>
<path d="M27.2282 116.911V115.553H29.5242V113.229H30.9242V115.553H33.2202V116.911H30.9242V119.319H29.5242V116.911H27.2282Z" fill="#9C4DF4"/>
<path d="M40.739 116.911V115.553H43.035V113.229H44.435V115.553H46.731V116.911H44.435V119.319H43.035V116.911H40.739Z" fill="#9C4DF4"/>
<path d="M54.2502 116.911V115.553H56.5462V113.229H57.9462V115.553H60.2422V116.911H57.9462V119.319H56.5462V116.911H54.2502Z" fill="#9C4DF4"/>
<path d="M67.7614 116.911V115.553H70.0574V113.229H71.4574V115.553H73.7534V116.911H71.4574V119.319H70.0574V116.911H67.7614Z" fill="#9C4DF4"/>
<path d="M81.2726 116.911V115.553H83.5686V113.229H84.9686V115.553H87.2646V116.911H84.9686V119.319H83.5686V116.911H81.2726Z" fill="#9C4DF4"/>
<path d="M94.7834 116.911V115.553H97.0794V113.229H98.4794V115.553H100.775V116.911H98.4794V119.319H97.0794V116.911H94.7834Z" fill="#9C4DF4"/>
<path d="M108.295 116.911V115.553H110.591V113.229H111.991V115.553H114.287V116.911H111.991V119.319H110.591V116.911H108.295Z" fill="#9C4DF4"/>
<path d="M121.806 116.911V115.553H124.102V113.229H125.502V115.553H127.798V116.911H125.502V119.319H124.102V116.911H121.806Z" fill="#9C4DF4"/>
<path d="M0.20575 130.422V129.064H2.50175V126.74H3.90175V129.064H6.19775V130.422H3.90175V132.83H2.50175V130.422H0.20575Z" fill="#9C4DF4"/>
<path d="M13.717 130.422V129.064H16.013V126.74H17.413V129.064H19.709V130.422H17.413V132.83H16.013V130.422H13.717Z" fill="#9C4DF4"/>
<path d="M27.2282 130.422V129.064H29.5242V126.74H30.9242V129.064H33.2202V130.422H30.9242V132.83H29.5242V130.422H27.2282Z" fill="#9C4DF4"/>
<path d="M40.739 130.422V129.064H43.035V126.74H44.435V129.064H46.731V130.422H44.435V132.83H43.035V130.422H40.739Z" fill="#9C4DF4"/>
<path d="M54.2502 130.422V129.064H56.5462V126.74H57.9462V129.064H60.2422V130.422H57.9462V132.83H56.5462V130.422H54.2502Z" fill="#9C4DF4"/>
<path d="M67.7614 130.422V129.064H70.0574V126.74H71.4574V129.064H73.7534V130.422H71.4574V132.83H70.0574V130.422H67.7614Z" fill="#9C4DF4"/>
<path d="M81.2726 130.422V129.064H83.5686V126.74H84.9686V129.064H87.2646V130.422H84.9686V132.83H83.5686V130.422H81.2726Z" fill="#9C4DF4"/>
<path d="M94.7834 130.422V129.064H97.0794V126.74H98.4794V129.064H100.775V130.422H98.4794V132.83H97.0794V130.422H94.7834Z" fill="#9C4DF4"/>
<path d="M108.295 130.422V129.064H110.591V126.74H111.991V129.064H114.287V130.422H111.991V132.83H110.591V130.422H108.295Z" fill="#9C4DF4"/>
<path d="M121.806 130.422V129.064H124.102V126.74H125.502V129.064H127.798V130.422H125.502V132.83H124.102V130.422H121.806Z" fill="#9C4DF4"/>
</svg>
