<svg width="183" height="183" viewBox="0 0 183 183" fill="none" xmlns="http://www.w3.org/2000/svg">
<g filter="url(#filter0_d_44_1674)">
<rect x="70" y="45" width="42.0755" height="42.0755" rx="5" fill="white"/>
</g>
<g clip-path="url(#clip0_44_1674)">
<path d="M79.894 53.415L81.4621 75.5097L91.0473 78.6603L100.633 75.5097L102.201 53.415H79.894Z" fill="#FF7816"/>
<path d="M102.201 53.415L100.633 75.5097L91.0474 78.6603V53.415H102.201Z" fill="#FF4B00"/>
<path d="M98.0149 60.1208H87.0538L87.32 63.8188H97.7487L97.1125 72.7729L91.0477 74.7995L84.9829 72.7729L84.7759 69.785H87.7343L87.7935 70.5986L91.0477 71.6783L94.302 70.5986L94.5682 66.7773H84.554L83.8735 57.1624H98.2219L98.0149 60.1208Z" fill="#ECECF1"/>
<path d="M97.7483 63.8188L97.1121 72.7729L91.0474 74.7995V71.6783L94.3016 70.5986L94.5678 66.7773H91.0474V63.8188H97.7483Z" fill="#E2E2E7"/>
<path d="M98.2216 57.1624L98.0145 60.1208H91.0474V57.1624H98.2216Z" fill="#E2E2E7"/>
</g>
<defs>
<filter id="filter0_d_44_1674" x="0" y="0" width="182.076" height="182.075" filterUnits="userSpaceOnUse" color-interpolation-filters="sRGB">
<feFlood flood-opacity="0" result="BackgroundImageFix"/>
<feColorMatrix in="SourceAlpha" type="matrix" values="0 0 0 0 0 0 0 0 0 0 0 0 0 0 0 0 0 0 127 0" result="hardAlpha"/>
<feOffset dy="25"/>
<feGaussianBlur stdDeviation="35"/>
<feColorMatrix type="matrix" values="0 0 0 0 0.0392157 0 0 0 0 0.0117647 0 0 0 0 0.235294 0 0 0 0.15 0"/>
<feBlend mode="normal" in2="BackgroundImageFix" result="effect1_dropShadow_44_1674"/>
<feBlend mode="normal" in="SourceGraphic" in2="effect1_dropShadow_44_1674" result="shape"/>
</filter>
<clipPath id="clip0_44_1674">
<rect width="25.2453" height="25.2453" fill="white" transform="translate(78.415 53.415)"/>
</clipPath>
</defs>
</svg>
