<svg width="36" height="36" viewBox="0 0 36 36" fill="none" xmlns="http://www.w3.org/2000/svg">
<circle cx="18" cy="18" r="18" fill="#FF6652"/>
<path d="M18.0004 11.4546C16.2228 11.4546 15.9997 11.4624 15.3016 11.4941C14.6048 11.526 14.1291 11.6364 13.713 11.7982C13.2825 11.9654 12.9173 12.189 12.5535 12.553C12.1894 12.9168 11.9658 13.282 11.7981 13.7124C11.6358 14.1287 11.5254 14.6045 11.494 15.301C11.4628 15.9992 11.4546 16.2224 11.4546 18C11.4546 19.7777 11.4625 20.0001 11.4941 20.6983C11.5262 21.3951 11.6365 21.8707 11.7982 22.2869C11.9655 22.7174 12.1892 23.0826 12.5531 23.4464C12.9168 23.8105 13.2819 24.0347 13.7122 24.2019C14.1286 24.3637 14.6044 24.474 15.301 24.5059C15.9992 24.5377 16.2221 24.5455 17.9996 24.5455C19.7773 24.5455 19.9997 24.5377 20.6979 24.5059C21.3947 24.474 21.8708 24.3637 22.2873 24.2019C22.7176 24.0347 23.0822 23.8105 23.4459 23.4464C23.81 23.0826 24.0336 22.7174 24.2013 22.287C24.3622 21.8707 24.4727 21.3949 24.5054 20.6984C24.5368 20.0002 24.545 19.7777 24.545 18C24.545 16.2224 24.5368 15.9993 24.5054 15.3011C24.4727 14.6043 24.3622 14.1287 24.2013 13.7125C24.0336 13.282 23.81 12.9168 23.4459 12.553C23.0818 12.1889 22.7177 11.9653 22.2869 11.7982C21.8696 11.6364 21.3937 11.526 20.6969 11.4941C19.9987 11.4624 19.7765 11.4546 17.9983 11.4546H18.0004ZM17.4132 12.6341C17.5875 12.6339 17.7819 12.6341 18.0004 12.6341C19.748 12.6341 19.9551 12.6404 20.6452 12.6718C21.2834 12.701 21.6297 12.8076 21.8605 12.8972C22.1659 13.0158 22.3837 13.1576 22.6126 13.3867C22.8417 13.6158 22.9835 13.834 23.1024 14.1395C23.192 14.3699 23.2988 14.7163 23.3278 15.3545C23.3592 16.0445 23.366 16.2517 23.366 17.9985C23.366 19.7454 23.3592 19.9526 23.3278 20.6426C23.2986 21.2808 23.192 21.6272 23.1024 21.8576C22.9838 22.1631 22.8417 22.3806 22.6126 22.6095C22.3835 22.8386 22.166 22.9804 21.8605 23.0991C21.63 23.1891 21.2834 23.2954 20.6452 23.3246C19.9552 23.356 19.748 23.3628 18.0004 23.3628C16.2527 23.3628 16.0455 23.356 15.3556 23.3246C14.7174 23.2952 14.371 23.1885 14.1402 23.0989C13.8347 22.9803 13.6166 22.8385 13.3875 22.6094C13.1584 22.3803 13.0166 22.1627 12.8977 21.8571C12.8081 21.6266 12.7013 21.2803 12.6723 20.6421C12.6409 19.9521 12.6346 19.7448 12.6346 17.9969C12.6346 16.249 12.6409 16.0428 12.6723 15.3528C12.7015 14.7146 12.8081 14.3683 12.8977 14.1375C13.0163 13.8321 13.1584 13.6139 13.3875 13.3848C13.6166 13.1557 13.8347 13.0139 14.1402 12.895C14.3709 12.805 14.7174 12.6986 15.3556 12.6693C15.9594 12.642 16.1934 12.6339 17.4132 12.6325V12.6341ZM21.4942 13.721C21.0606 13.721 20.7088 14.0724 20.7088 14.5061C20.7088 14.9398 21.0606 15.2916 21.4942 15.2916C21.9278 15.2916 22.2796 14.9398 22.2796 14.5061C22.2796 14.0725 21.9278 13.7207 21.4942 13.7207V13.721ZM18.0004 14.6387C16.1441 14.6387 14.6391 16.1437 14.6391 18C14.6391 19.8564 16.1441 21.3607 18.0004 21.3607C19.8567 21.3607 21.3611 19.8564 21.3611 18C21.3611 16.1437 19.8565 14.6387 18.0003 14.6387H18.0004ZM18.0004 15.8182C19.2053 15.8182 20.1821 16.795 20.1821 18C20.1821 19.2049 19.2053 20.1819 18.0004 20.1819C16.7954 20.1819 15.8186 19.2049 15.8186 18C15.8186 16.795 16.7954 15.8182 18.0004 15.8182Z" fill="white"/>
</svg>
