<svg width="183" height="183" viewBox="0 0 183 183" fill="none" xmlns="http://www.w3.org/2000/svg">
<g filter="url(#filter0_d_44_1697)">
<rect x="70" y="45" width="42.0755" height="42.0755" rx="5" fill="white"/>
</g>
<g clip-path="url(#clip0_44_1697)">
<path d="M90.9128 58.0928C89.7463 58.9132 88.4242 59.8431 87.7158 61.3816C86.4854 64.0656 90.2335 66.9933 90.3937 67.1166C90.431 67.1453 90.4755 67.1596 90.52 67.1596C90.5672 67.1596 90.6144 67.1435 90.6528 67.1113C90.7272 67.0491 90.7483 66.9434 90.7036 66.8573C90.69 66.8312 89.3446 64.2179 89.3946 62.3431C89.4123 61.6901 90.3261 60.9494 91.2936 60.1651C92.1796 59.4468 93.184 58.6327 93.7716 57.6803C95.0617 55.584 93.6279 53.5226 93.6132 53.502C93.5563 53.4221 93.4511 53.3931 93.3613 53.4325C93.2715 53.4722 93.2217 53.5692 93.2422 53.6652C93.2451 53.6789 93.524 55.0421 92.7481 56.4465C92.4285 57.0268 91.7261 57.5208 90.9128 58.0928Z" fill="#DB380E"/>
<path d="M95.8275 59.0173C95.9098 58.9553 95.9339 58.8422 95.8842 58.752C95.8343 58.6617 95.7259 58.622 95.6295 58.6585C95.4313 58.7339 90.7769 60.528 90.7769 62.6958C90.7769 64.1902 91.4152 64.9796 91.8813 65.5561C92.0641 65.7822 92.222 65.9775 92.274 66.1442C92.4204 66.6246 92.0735 67.4929 91.9276 67.787C91.8855 67.8715 91.9061 67.9739 91.9777 68.0357C92.0163 68.0691 92.0646 68.086 92.1129 68.086C92.1541 68.086 92.1954 68.0738 92.2311 68.0489C92.3111 67.9933 94.187 66.667 93.8505 65.0691C93.7252 64.4618 93.4267 64.018 93.1634 63.6264C92.7554 63.0197 92.4608 62.5814 92.9078 61.772C93.4315 60.8279 95.8035 59.0352 95.8275 59.0173Z" fill="#DB380E"/>
<path d="M83.7117 68.1203C83.6319 68.3592 83.6696 68.5962 83.8205 68.8059C84.3251 69.5064 86.1123 69.892 88.8532 69.892C88.8534 69.892 88.8535 69.892 88.8536 69.892C89.225 69.892 89.617 69.8847 90.0187 69.8704C94.4008 69.7135 96.0262 68.3483 96.0933 68.2902C96.1663 68.227 96.1859 68.1217 96.1405 68.0365C96.095 67.9513 95.997 67.9085 95.9034 67.9343C94.36 68.3557 91.4782 68.5053 89.4792 68.5053C87.2425 68.5053 86.1034 68.3441 85.8245 68.2252C85.9676 68.0287 86.8502 67.6778 87.9439 67.4627C88.0484 67.4422 88.1203 67.3456 88.1099 67.2396C88.0996 67.1336 88.0105 67.0527 87.904 67.0527C87.2629 67.0527 84.0478 67.1042 83.7117 68.1203Z" fill="#73A1FB"/>
<path d="M98.3753 66.7144C97.4714 66.7144 96.6143 67.1674 96.5782 67.1866C96.4946 67.2313 96.4522 67.3272 96.4752 67.4193C96.4982 67.5113 96.5809 67.5759 96.6757 67.576C96.6949 67.576 98.6037 67.5916 98.7766 68.6823C98.9297 69.6231 96.9705 71.1476 96.2026 71.6557C96.1197 71.7106 96.0875 71.8166 96.126 71.9083C96.1588 71.9863 96.2348 72.0352 96.3167 72.0352C96.331 72.0352 96.3455 72.0337 96.3599 72.0306C96.5422 71.9916 100.818 71.0495 100.366 68.5602C100.09 67.0346 99.131 66.7144 98.3753 66.7144Z" fill="#73A1FB"/>
<path d="M95.443 71.3511C95.4579 71.2713 95.4247 71.1902 95.3583 71.1436L94.3332 70.4256C94.2832 70.3905 94.22 70.3796 94.1613 70.3951C94.1507 70.3978 93.0786 70.6796 91.5222 70.8525C90.9044 70.9217 90.2126 70.9583 89.5212 70.9583C87.9651 70.9583 86.9477 70.7755 86.7996 70.6414C86.7799 70.6037 86.7861 70.5866 86.7896 70.5771C86.8166 70.5022 86.9608 70.4133 87.0538 70.3781C87.1565 70.3401 87.2119 70.2285 87.18 70.1238C87.1481 70.0189 87.0401 69.9572 86.9335 69.9828C85.9051 70.231 85.4023 70.578 85.4389 71.0142C85.5039 71.7877 87.2953 72.1846 88.8098 72.2896C89.0276 72.3045 89.2631 72.312 89.5097 72.312C89.5098 72.312 89.5099 72.312 89.5101 72.312C92.0284 72.312 95.2569 71.5219 95.2891 71.5138C95.368 71.4946 95.4281 71.4309 95.443 71.3511Z" fill="#73A1FB"/>
<path d="M87.7144 73.0108C87.7921 72.9603 87.8265 72.8643 87.7989 72.7759C87.7715 72.6875 87.6888 72.6294 87.5959 72.6306C87.4581 72.6343 86.2474 72.6889 86.1626 73.4597C86.137 73.6901 86.2029 73.9006 86.3588 74.0853C86.7935 74.6004 87.9669 74.9066 89.9455 75.0213C90.1795 75.0354 90.4173 75.0424 90.6522 75.0424C93.1677 75.0424 94.8618 74.2548 94.9327 74.2213C95.0015 74.1888 95.0469 74.1212 95.0509 74.0452C95.055 73.9693 95.017 73.8973 94.9521 73.8576L93.6566 73.0667C93.6116 73.0392 93.5578 73.0302 93.5066 73.0407C93.4984 73.0424 92.6758 73.213 91.4344 73.3815C91.1995 73.4135 90.9053 73.4297 90.5601 73.4297C89.3201 73.4297 87.9407 73.2271 87.6762 73.0944C87.6724 73.0697 87.6772 73.0382 87.7144 73.0108Z" fill="#73A1FB"/>
<path d="M89.4799 77.4205C95.2417 77.4156 98.3341 76.391 98.9299 75.7462C99.1407 75.5181 99.1635 75.3021 99.1456 75.1611C99.1013 74.8139 98.7851 74.6014 98.7493 74.5783C98.6628 74.5227 98.5467 74.5373 98.4793 74.6151C98.412 74.6929 98.4104 74.8066 98.4779 74.8843C98.5143 74.9311 98.5353 75.0093 98.429 75.1157C98.1909 75.3381 95.7889 76.0133 91.7895 76.2161C91.2416 76.2446 90.667 76.2591 90.0817 76.2592C86.5008 76.2592 83.8802 75.7687 83.5362 75.4829C83.6688 75.2924 84.5957 74.988 85.5816 74.8158C85.6926 74.7964 85.7677 74.6917 85.7505 74.5803C85.7333 74.4689 85.6306 74.3923 85.5183 74.4068C85.4905 74.4106 85.3961 74.4162 85.2868 74.4229C83.6603 74.5222 81.7806 74.7436 81.6826 75.5816C81.6528 75.837 81.7287 76.0688 81.9082 76.2706C82.3475 76.7642 83.6101 77.4204 89.4797 77.4204C89.4798 77.4205 89.4798 77.4205 89.4799 77.4205Z" fill="#73A1FB"/>
<path d="M100.062 75.9279C99.9801 75.8902 99.8838 75.9092 99.8231 75.9748C99.8147 75.9839 98.9484 76.8897 96.3438 77.4217C95.3466 77.6215 93.4749 77.7228 90.7806 77.7228C88.0813 77.7228 85.5127 77.6166 85.4871 77.6155C85.3798 77.6103 85.2881 77.6883 85.2735 77.7939C85.2588 77.8994 85.3269 77.9989 85.4305 78.0236C85.4572 78.0299 88.149 78.6605 91.8295 78.6605C93.5948 78.6605 95.3125 78.5172 96.9352 78.2343C99.9608 77.7039 100.173 76.2036 100.18 76.14C100.191 76.0511 100.143 75.9655 100.062 75.9279Z" fill="#73A1FB"/>
</g>
<defs>
<filter id="filter0_d_44_1697" x="0" y="0" width="182.076" height="182.075" filterUnits="userSpaceOnUse" color-interpolation-filters="sRGB">
<feFlood flood-opacity="0" result="BackgroundImageFix"/>
<feColorMatrix in="SourceAlpha" type="matrix" values="0 0 0 0 0 0 0 0 0 0 0 0 0 0 0 0 0 0 127 0" result="hardAlpha"/>
<feOffset dy="25"/>
<feGaussianBlur stdDeviation="35"/>
<feColorMatrix type="matrix" values="0 0 0 0 0.0392157 0 0 0 0 0.0117647 0 0 0 0 0.235294 0 0 0 0.15 0"/>
<feBlend mode="normal" in2="BackgroundImageFix" result="effect1_dropShadow_44_1697"/>
<feBlend mode="normal" in="SourceGraphic" in2="effect1_dropShadow_44_1697" result="shape"/>
</filter>
<clipPath id="clip0_44_1697">
<rect width="25.2453" height="25.2453" fill="white" transform="translate(78.415 53.415)"/>
</clipPath>
</defs>
</svg>
