<svg width="44" height="45" viewBox="0 0 44 45" fill="none" xmlns="http://www.w3.org/2000/svg">
<rect y="0.0444336" width="44" height="44" rx="5" fill="#F8F2FF"/>
<g clip-path="url(#clip0_44_1871)">
<path d="M23.1373 17.986C22.6908 18.4315 21.9672 18.4315 21.5208 17.986C21.0745 17.5405 21.0745 16.8182 21.5208 16.3727C21.9672 15.9272 22.6908 15.9272 23.1373 16.3727C23.5836 16.8182 23.5836 17.5405 23.1373 17.986Z" fill="#9C4DF4"/>
<path d="M24.6986 19.7145C24.5593 19.7145 24.4201 19.6614 24.3141 19.555C24.102 19.3427 24.1024 18.9986 24.3147 18.7867C24.745 18.3573 24.9819 17.7864 24.9819 17.1793C24.9819 16.5722 24.745 16.0013 24.3147 15.5719C24.1024 15.3598 24.102 15.016 24.3141 14.8035C24.526 14.5912 24.87 14.5908 25.0823 14.8028C25.7183 15.4376 26.0684 16.2815 26.0684 17.1793C26.0684 18.077 25.7183 18.9211 25.0823 19.5558C24.9763 19.6617 24.8374 19.7145 24.6986 19.7145Z" fill="#9C4DF4"/>
<path d="M25.9271 21.3139C25.7878 21.3139 25.6486 21.2607 25.5426 21.1544C25.3305 20.942 25.331 20.5981 25.5433 20.3861C26.4016 19.5294 26.8744 18.3906 26.8744 17.1792C26.8744 15.9678 26.4016 14.8289 25.5433 13.9723C25.331 13.7602 25.3305 13.4164 25.5426 13.2039C25.7546 12.9916 26.0985 12.9912 26.3108 13.2032C27.3748 14.2652 27.9609 15.6772 27.9608 17.1792C27.9608 18.6811 27.3748 20.0933 26.3108 21.1553C26.2048 21.261 26.0659 21.3139 25.9271 21.3139Z" fill="#9C4DF4"/>
<path d="M19.9564 19.7141C19.8176 19.7141 19.6787 19.6612 19.5726 19.5554C18.9366 18.9206 18.5864 18.0766 18.5864 17.1789C18.5864 16.281 18.9366 15.4371 19.5726 14.8024C19.7849 14.5904 20.1289 14.5906 20.3408 14.8031C20.5528 15.0154 20.5524 15.3594 20.3401 15.5714C19.9099 16.0009 19.673 16.5717 19.673 17.1789C19.673 17.786 19.9099 18.3569 20.3401 18.7863C20.5524 18.9982 20.5528 19.3422 20.3408 19.5545C20.2348 19.6608 20.0955 19.7141 19.9564 19.7141Z" fill="#9C4DF4"/>
<path d="M18.7277 21.3144C18.5887 21.3144 18.4499 21.2616 18.3439 21.1557C17.2798 20.0937 16.6938 18.6817 16.6938 17.1797C16.6938 15.6776 17.2798 14.2656 18.3439 13.2036C18.5562 12.9917 18.9002 12.992 19.1121 13.2045C19.3241 13.4168 19.3237 13.7606 19.1114 13.9727C18.2531 14.8293 17.7803 15.9682 17.7803 17.1796C17.7803 18.391 18.2531 19.53 19.1114 20.3866C19.3237 20.5987 19.3241 20.9425 19.1121 21.155C19.0061 21.2613 18.8668 21.3144 18.7277 21.3144Z" fill="#9C4DF4"/>
<path d="M29.4876 22.2529H15.1673C14.4654 22.2529 13.8965 22.8219 13.8965 23.5236V29.7733C13.8965 30.4752 14.4654 31.0442 15.1673 31.0442H29.4874C30.1893 31.0442 30.7583 30.4752 30.7583 29.7733V23.5236C30.7583 22.8219 30.1893 22.2529 29.4876 22.2529ZM18.0755 29.4137H16.074C15.774 29.4137 15.5308 29.1705 15.5308 28.8704V24.4267C15.5308 24.1268 15.774 23.8834 16.074 23.8834C16.374 23.8834 16.6172 24.1266 16.6172 24.4267V28.3271H18.0755C18.3756 28.3271 18.6188 28.5703 18.6188 28.8704C18.6188 29.1705 18.3756 29.4137 18.0755 29.4137ZM20.3019 28.8704C20.3019 29.1705 20.0587 29.4137 19.7586 29.4137C19.4586 29.4137 19.2154 29.1705 19.2154 28.8704V24.4267C19.2154 24.1268 19.4586 23.8834 19.7586 23.8834C20.0587 23.8834 20.3019 24.1266 20.3019 24.4267V28.8704ZM24.8728 24.5838L23.5312 29.0274C23.5311 29.0278 23.5309 29.0282 23.5308 29.0286C23.3851 29.5259 22.6423 29.5136 22.4915 29.0286C22.4913 29.0282 22.4912 29.0278 22.4911 29.0274L21.1495 24.5838C21.0629 24.2965 21.2253 23.9934 21.5126 23.9066C21.7996 23.82 22.103 23.9824 22.1896 24.2697L23.0111 26.9906L23.8326 24.2697C23.9194 23.9824 24.2225 23.8199 24.5098 23.9066C24.797 23.9934 24.9596 24.2965 24.8728 24.5838ZM28.2149 25.8255C28.515 25.8255 28.7582 26.0687 28.7582 26.3688C28.7582 26.6687 28.515 26.9121 28.2149 26.9121H26.6733V28.3271H28.5076C28.8076 28.3271 29.0509 28.5703 29.0509 28.8704C29.0509 29.1705 28.8076 29.4137 28.5076 29.4137H26.13C25.8299 29.4137 25.5867 29.1705 25.5867 28.8704V24.4267C25.5867 24.1268 25.8299 23.8834 26.13 23.8834H28.5808C28.8807 23.8834 29.1241 24.1266 29.1241 24.4267C29.1241 24.7268 28.8807 24.97 28.5808 24.97H26.6731V25.8255H28.2149Z" fill="#9C4DF4"/>
</g>
<defs>
<clipPath id="clip0_44_1871">
<rect width="18" height="18" fill="white" transform="translate(13.334 13.0444)"/>
</clipPath>
</defs>
</svg>
