<svg width="30" height="30" viewBox="0 0 30 30" fill="none" xmlns="http://www.w3.org/2000/svg">
<path d="M3.75 10H26.25C26.5815 10 26.8995 9.8683 27.1339 9.63388C27.3683 9.39946 27.5 9.08152 27.5 8.75C27.5 8.41848 27.3683 8.10054 27.1339 7.86612C26.8995 7.6317 26.5815 7.5 26.25 7.5H3.75C3.41848 7.5 3.10054 7.6317 2.86612 7.86612C2.6317 8.10054 2.5 8.41848 2.5 8.75C2.5 9.08152 2.6317 9.39946 2.86612 9.63388C3.10054 9.8683 3.41848 10 3.75 10ZM26.25 20H3.75C3.41848 20 3.10054 20.1317 2.86612 20.3661C2.6317 20.6005 2.5 20.9185 2.5 21.25C2.5 21.5815 2.6317 21.8995 2.86612 22.1339C3.10054 22.3683 3.41848 22.5 3.75 22.5H26.25C26.5815 22.5 26.8995 22.3683 27.1339 22.1339C27.3683 21.8995 27.5 21.5815 27.5 21.25C27.5 20.9185 27.3683 20.6005 27.1339 20.3661C26.8995 20.1317 26.5815 20 26.25 20ZM26.25 13.75H3.75C3.41848 13.75 3.10054 13.8817 2.86612 14.1161C2.6317 14.3505 2.5 14.6685 2.5 15C2.5 15.3315 2.6317 15.6495 2.86612 15.8839C3.10054 16.1183 3.41848 16.25 3.75 16.25H26.25C26.5815 16.25 26.8995 16.1183 27.1339 15.8839C27.3683 15.6495 27.5 15.3315 27.5 15C27.5 14.6685 27.3683 14.3505 27.1339 14.1161C26.8995 13.8817 26.5815 13.75 26.25 13.75Z" fill="#0A033C"/>
</svg>
