<svg width="50" height="51" viewBox="0 0 50 51" fill="none" xmlns="http://www.w3.org/2000/svg">
<path d="M25 50.0444C38.8071 50.0444 50 38.8516 50 25.0444C50 11.2373 38.8071 0.0444336 25 0.0444336C11.1929 0.0444336 0 11.2373 0 25.0444C0 38.8516 11.1929 50.0444 25 50.0444Z" fill="#FFB54A"/>
<path d="M33.3166 48.6258C40.9643 45.9285 46.9061 39.6177 49.0909 31.7429L28.7489 11.4009C28.7489 11.4009 20.0857 18.6568 20.4413 20.6479L24.4157 24.5744L23.0849 38.394L33.3166 48.6258Z" fill="#F9880D"/>
<path d="M28.749 11.4009V38.394H23.085V18.3687L20.4414 20.6479L16.7432 16.3579L22.1514 11.6948L22.4922 11.4009H28.749Z" fill="#F8FFFB"/>
<path d="M25 11.4009H28.749V38.394H25V11.4009Z" fill="#D8D8D8"/>
</svg>
