<svg width="44" height="45" viewBox="0 0 44 45" fill="none" xmlns="http://www.w3.org/2000/svg">
<rect y="0.0444336" width="44" height="44" rx="5" fill="#E5FFF3"/>
<g clip-path="url(#clip0_44_1862)">
<path d="M21.667 13.0444C16.6964 13.0444 12.667 17.0739 12.667 22.0444C12.667 27.015 16.6964 31.0444 21.667 31.0444C26.6375 31.0444 30.667 27.015 30.667 22.0444C30.6617 17.0761 26.6353 13.0497 21.667 13.0444ZM25.4572 22.3312C25.3949 22.4562 25.2936 22.5575 25.1686 22.6198V22.623L20.0258 25.1944C19.7082 25.3531 19.3221 25.2243 19.1633 24.9067C19.1182 24.8164 19.095 24.7168 19.0955 24.6159V19.473C19.0954 19.118 19.383 18.83 19.7381 18.8298C19.838 18.8298 19.9365 18.853 20.0258 18.8976L25.1686 21.4691C25.4864 21.6274 25.6156 22.0134 25.4572 22.3312Z" fill="#00C968"/>
</g>
<defs>
<clipPath id="clip0_44_1862">
<rect width="18" height="18" fill="white" transform="translate(12.667 13.0444)"/>
</clipPath>
</defs>
</svg>
