<svg width="50" height="51" viewBox="0 0 50 51" fill="none" xmlns="http://www.w3.org/2000/svg">
<g clip-path="url(#clip0_44_1805)">
<path d="M25 50.0444C38.8071 50.0444 50 38.8516 50 25.0444C50 11.2373 38.8071 0.0444336 25 0.0444336C11.1929 0.0444336 0 11.2373 0 25.0444C0 38.8516 11.1929 50.0444 25 50.0444Z" fill="#424242"/>
<path d="M27.6941 49.8995C38.4397 48.7479 47.1468 40.7885 49.4188 30.4189L33.2989 14.299C33.2989 14.299 20.1108 13.9346 15.3472 21.7695L22.367 28.8071L16.1159 38.3939L27.6941 49.8995Z" fill="#232323"/>
<path d="M35.398 38.3938H16.1158V31.8851L28.4994 22.5098C30.0697 21.3209 29.6913 19.6632 29.538 19.1834C29.3902 18.7213 28.7613 17.2088 26.8714 17.1536C26.8293 17.1524 26.7552 17.1518 26.7255 17.1516H24.5358C21.3103 17.1516 21.0598 20.686 21.0598 21.7693H15.3472C15.3472 15.6869 19.1257 11.439 24.5358 11.439L26.7578 11.4391C26.7578 11.4391 26.9445 11.4407 27.0375 11.4434C30.7314 11.5513 33.8485 13.9066 34.9794 17.4438C36.1247 21.0267 34.9347 24.8028 31.9476 27.0643L24.5285 32.6812H35.3981V38.3938H35.398Z" fill="#F8FFFB"/>
<path d="M31.9475 27.0643L25.378 32.0382V24.8729L28.4992 22.51C30.0692 21.3212 29.691 19.6635 29.5383 19.1839C29.3905 18.721 28.7611 17.2091 26.8711 17.154C26.8287 17.153 26.7549 17.1521 26.7253 17.1521H25.3779V11.4395H26.7578C26.7578 11.4395 26.9439 11.4414 27.0375 11.4434C30.731 11.5517 33.8482 13.9066 34.979 17.4445C36.1245 21.0267 34.9348 24.8029 31.9475 27.0643Z" fill="#D8D8D8"/>
<path d="M25.3789 32.6812H35.3986V38.3937H25.3789V32.6812Z" fill="#D8D8D8"/>
</g>
<defs>
<clipPath id="clip0_44_1805">
<rect width="50" height="50" fill="white" transform="translate(0 0.0444336)"/>
</clipPath>
</defs>
</svg>
